<svg width="93" height="50" viewBox="0 0 93 50" xmlns="http://www.w3.org/2000/svg"><g fill="#1A1918" fill-rule="evenodd"><path d="M2.473 48.442H.283v-.165c.19-.02.323-.106.4-.258.037-.08.068-.19.088-.324.023-.136.033-.29.033-.467v-5.837c0-.355-.04-.615-.12-.78a.471.471 0 0 0-.4-.274v-.165h2.19v.164a.42.42 0 0 0-.4.247c-.085.163-.126.432-.126.806v5.836c0 .36.04.627.12.795.083.148.22.23.406.246v.172zm12.51-2.156c0 .69-.29 1.222-.87 1.595-.58.375-1.432.562-2.557.562h-3.03v-.165c.18 0 .312-.087.4-.258.038-.082.07-.188.09-.322.024-.133.037-.29.037-.47V41.4c0-.376-.04-.642-.12-.795-.08-.153-.217-.238-.406-.258v-.17l1.778-.046c.06 0 .164-.005.31-.014.144-.006.258-.01.342-.01h.377c.503 0 .954.047 1.352.142.4.096.754.244 1.067.447.613.377.92.866.92 1.464 0 .442-.175.816-.525 1.12-.35.306-.866.542-1.544.704v.046c.732.137 1.31.41 1.738.814.427.404.64.885.64 1.442m-1.406-4.12c0-.57-.182-1.008-.546-1.312-.364-.305-.89-.457-1.58-.457-.527 0-.87.057-1.024.172a.57.57 0 0 0-.187.297 1.69 1.69 0 0 0-.066.512v2.496h.76c.938 0 1.613-.132 2.024-.395.412-.264.618-.703.618-1.314m.263 4c0-.673-.194-1.174-.578-1.503-.386-.33-.97-.496-1.756-.496h-1.332v3.073c0 .39.07.644.21.762.15.1.485.147 1.007.147.836 0 1.453-.16 1.85-.48.4-.32.6-.823.6-1.505m10.551-5.818c-.268.08-.456.26-.567.54-.11.277-.166.72-.166 1.326v2.708c0 .777-.042 1.364-.124 1.76-.086.393-.215.708-.39.94-.256.336-.59.588-1.003.755-.415.168-.927.252-1.536.252-.565 0-1.057-.082-1.476-.25a2.31 2.31 0 0 1-1.007-.734c-.174-.205-.3-.47-.38-.795-.08-.323-.122-.844-.122-1.56v-3.892c0-.355-.04-.615-.12-.78a.474.474 0 0 0-.406-.273v-.165h2.196v.165a.42.42 0 0 0-.4.246c-.084.164-.126.433-.126.807v4.125c0 .966.164 1.65.493 2.057.326.407.886.61 1.675.61.347 0 .66-.042.943-.127.127-.034.248-.083.366-.145.117-.063.23-.135.342-.215.252-.21.437-.506.556-.887.052-.186.093-.444.122-.772.03-.33.044-.707.044-1.135V42.15c0-.566-.065-.994-.192-1.286-.128-.293-.332-.467-.61-.524v-.165h1.887v.17zm9.177 3.917c0 .607-.106 1.19-.315 1.746a4.777 4.777 0 0 1-.92 1.512c-.32.367-.69.642-1.105.828a3.334 3.334 0 0 1-1.372.277c-.252 0-.486-.017-.7-.05a2.92 2.92 0 0 1-1.168-.454 4.176 4.176 0 0 1-.535-.42 3.897 3.897 0 0 1-.946-1.47 5.397 5.397 0 0 1-.33-1.91c0-.355.027-.683.08-.982.053-.3.14-.594.258-.88.225-.546.576-1.05 1.052-1.517a3.58 3.58 0 0 1 .497-.402 3.367 3.367 0 0 1 1.848-.553 3.434 3.434 0 0 1 1.733.473c.167.1.32.213.458.34.46.447.82.967 1.077 1.56.257.593.387 1.228.387 1.904m-1.28-.11c0-1.29-.203-2.262-.605-2.92-.403-.656-1.007-.984-1.816-.984-.77 0-1.366.355-1.787 1.062-.423.708-.633 1.72-.633 3.032 0 .684.05 1.27.146 1.764.098.493.246.908.45 1.247.395.666 1.004.998 1.823.998.823 0 1.436-.34 1.835-1.02.192-.34.337-.77.436-1.3.1-.525.15-1.15.15-1.877m10.209-3.811c-.108.07-.2.154-.275.252-.078.1-.14.22-.19.355-.087.263-.13.776-.13 1.54v6.042h-.43l-5.25-7.404v5.545c0 .473.068.84.204 1.106.134.267.335.428.603.484v.178h-1.934v-.178c.25-.098.448-.27.59-.514.06-.114.108-.255.14-.424.033-.167.048-.353.048-.56V41.46c0-.358-.058-.628-.176-.81-.103-.18-.275-.282-.515-.305v-.17h1.696l4.674 6.602v-4.195c0-.773-.068-1.324-.2-1.657a.862.862 0 0 0-.646-.58v-.17h1.79v.17zm9.47 7.232c-.37.19-.7.343-.99.464-.328.14-.64.247-.93.328a6.729 6.729 0 0 1-1.785.257c-.61 0-1.145-.11-1.615-.327a3.994 3.994 0 0 1-.674-.434 4.436 4.436 0 0 1-.623-.607 4.247 4.247 0 0 1-.688-1.25 4.883 4.883 0 0 1-.244-1.557c0-.686.12-1.31.36-1.877.118-.287.265-.557.443-.813.175-.255.383-.5.62-.727.186-.168.38-.315.585-.442a4.3 4.3 0 0 1 .69-.335 4.51 4.51 0 0 1 1.566-.27c.454 0 .916.08 1.382.24.468.162.947.397 1.44.706l-.316 1.36h-.16c-.268-.62-.64-1.105-1.118-1.46a2.607 2.607 0 0 0-1.58-.53c-.87 0-1.536.34-1.997 1.025-.46.683-.692 1.673-.692 2.966 0 1.326.238 2.334.713 3.024.476.69 1.178 1.036 2.106 1.036.6 0 1.083-.127 1.45-.38.37-.254.554-.595.554-1.023v-2.195c0-.118-.017-.23-.05-.337a.916.916 0 0 0-.138-.28c-.043-.058-.14-.11-.293-.153a3.274 3.274 0 0 0-.407-.09v-.13h2.368v.13c-.13 0-.242.067-.337.197a.855.855 0 0 0-.13.49v2.163c0 .225.043.4.13.527.084.133.202.2.355.2l.006.107zm4.316.865h-2.192v-.165c.19-.02.324-.106.402-.258.036-.08.067-.19.087-.324.02-.136.032-.29.032-.467v-5.837c0-.355-.04-.615-.12-.78a.473.473 0 0 0-.402-.274v-.165h2.19v.164a.421.421 0 0 0-.4.247c-.084.163-.125.432-.125.806v5.836c0 .36.04.627.12.795.083.148.22.23.406.246v.172zm9.502-4.18c0 .607-.106 1.19-.315 1.746a4.777 4.777 0 0 1-.92 1.512c-.32.367-.69.642-1.105.828a3.337 3.337 0 0 1-1.372.277c-.252 0-.486-.017-.7-.05a2.933 2.933 0 0 1-1.166-.454 4.113 4.113 0 0 1-.536-.42 3.912 3.912 0 0 1-.947-1.47 5.464 5.464 0 0 1-.327-1.91c0-.355.026-.683.08-.982.053-.3.14-.594.257-.88.225-.546.576-1.05 1.052-1.517.152-.148.318-.282.497-.402.178-.12.37-.222.578-.306.41-.165.834-.247 1.27-.247a3.443 3.443 0 0 1 1.732.473c.166.1.32.213.458.34.46.447.82.967 1.077 1.56.257.593.387 1.228.387 1.904m-1.282-.11c0-1.29-.2-2.262-.603-2.92-.403-.656-1.007-.984-1.816-.984-.77 0-1.365.355-1.785 1.062-.422.708-.633 1.72-.633 3.032 0 .684.05 1.27.145 1.764.098.493.248.908.45 1.247.396.666 1.004.998 1.824.998.824 0 1.437-.34 1.836-1.02.19-.34.335-.77.435-1.3.1-.525.15-1.15.15-1.877m9.89 5.114a5.879 5.879 0 0 1-1.12-.617 4.925 4.925 0 0 1-1.007-.98c-.355-.44-.674-.897-.956-1.366a9.853 9.853 0 0 1-.81-1.67h-.396l-.74-.022h-.054v2.624c0 .373.04.638.124.79.084.172.22.257.407.257v.167h-2.177v-.167c.177 0 .31-.085.396-.257.086-.17.13-.436.13-.796v-5.83c0-.38-.044-.65-.128-.8-.077-.154-.21-.24-.4-.26v-.17l1.847-.09.674-.037h.4c1.11 0 1.99.218 2.64.65.65.433.974 1.007.974 1.72 0 .527-.202.98-.606 1.356-.202.187-.475.35-.818.49a4.742 4.742 0 0 1-1.154.293c.235.565.474 1.086.714 1.563.256.51.498.94.727 1.29.207.317.392.564.56.74.222.232.48.43.773.595v.525zm-1.418-6.882c0-.663-.204-1.176-.61-1.535-.406-.362-.977-.54-1.712-.54-.496 0-.846.067-1.053.205-.194.145-.29.405-.29.78v3.007c.08.018.145.034.2.043.052.01.113.015.182.015h.497c.94 0 1.64-.164 2.098-.49.458-.327.687-.82.687-1.485zm10.219-2.043c-.108.07-.2.154-.274.252-.077.1-.14.22-.19.355-.087.263-.13.776-.13 1.54v6.042h-.43l-5.25-7.404v5.545c0 .473.068.84.204 1.106.134.267.335.428.604.484v.178h-1.935v-.178c.252-.098.45-.27.59-.514.06-.114.108-.255.14-.424.033-.167.048-.353.048-.56V41.46c0-.358-.058-.628-.176-.81-.102-.18-.274-.282-.515-.305v-.17h1.696l4.674 6.602v-4.195c0-.773-.067-1.324-.2-1.657a.862.862 0 0 0-.646-.58v-.17h1.79v.17zm9.144 3.917c0 .607-.106 1.19-.315 1.746a4.777 4.777 0 0 1-.92 1.512c-.32.367-.69.642-1.105.828a3.335 3.335 0 0 1-1.373.277c-.25 0-.485-.017-.7-.05a2.933 2.933 0 0 1-1.165-.454 4.113 4.113 0 0 1-.536-.42 3.936 3.936 0 0 1-.947-1.47 5.442 5.442 0 0 1-.328-1.91c0-.355.025-.683.078-.982.054-.3.14-.594.258-.88.225-.546.576-1.05 1.052-1.517.153-.148.318-.282.498-.402.18-.12.372-.222.578-.306.41-.165.835-.247 1.27-.247a3.443 3.443 0 0 1 1.732.473c.167.1.32.213.458.34.46.447.82.967 1.077 1.56.258.593.388 1.228.388 1.904m-1.28-.11c0-1.29-.203-2.262-.604-2.92-.404-.656-1.008-.984-1.817-.984-.77 0-1.366.355-1.786 1.062-.42.708-.632 1.72-.632 3.032 0 .684.05 1.27.146 1.764.097.493.247.908.45 1.247.395.666 1.004.998 1.823.998.823 0 1.436-.34 1.835-1.02.19-.34.335-.77.435-1.3.1-.525.15-1.15.15-1.877M.725 31.04h91.082V.23H.725v30.81zm.65-.65h89.78V.878H1.376V30.39z"/><path d="M46.266 20.268a4.64 4.64 0 0 1-4.632-4.634A4.638 4.638 0 0 1 46.266 11a4.637 4.637 0 0 1 4.63 4.634 4.637 4.637 0 0 1-4.63 4.634m0-8.617c-2.196 0-3.982 1.787-3.982 3.984s1.786 3.983 3.982 3.983c2.194 0 3.98-1.786 3.98-3.983s-1.786-3.983-3.98-3.983m-7.963-3.525L36.84 6.663l.46-.46 1.463 1.464m3.445 4.368l-1.463-1.464.46-.46 1.464 1.464m8.656 9.582l-1.462-1.463.46-.46 1.462 1.463m3.445 4.368L53.768 23.6l.46-.46 1.462 1.465m-18.39.46l-.46-.46 1.46-1.465.46.46m2.444-2.443l-.46-.46 1.465-1.464.458.46m7.655-7.658l-.46-.46 1.463-1.464.46.46m2.443-2.444l-.46-.46 1.462-1.464.46.46m-9.75 3.521h.652v-2.07h-.65m-.002 19.514h.652v-2.07h-.65M45.94 5.71h.652V3.64h-.65m-.002 19.514h.652v-2.07h-.65m-1.845-10.46L42.98 7.55l.61-.223 1.12 3.075m4.23 13.538l-1.118-3.073.612-.223 1.12 3.075m-1.12-13.095l-.613-.222 1.12-3.075.613.223M43.59 23.94l-.612-.22 1.12-3.076.61.223m6.787-6.792l-.223-.61 3.072-1.12.224.612m-16.382 5.966l-.223-.612 3.072-1.118.224.612m13.085 1.118l-3.072-1.12.223-.61 3.073 1.118m-13.533-4.236l-3.072-1.118.223-.612 3.073 1.12m10.454 2.495h2.07v-.652h-2.07m4.47.652h2.07v-.652h-2.07m-21.903.652h2.068v-.652h-2.07m4.472.652h2.07v-.652h-2.07M76.1 23.7h.65v-6.3h-.65m7.398-7.216h.65v-3.05h-.65"/><path d="M76.425 17.726c-4.26 0-7.723-3.466-7.723-7.728h.65c0 3.902 3.173 7.077 7.073 7.077 3.9 0 7.073-3.175 7.073-7.077h.65c0 4.262-3.465 7.728-7.723 7.728"/><path d="M81.722 12.41a4.31 4.31 0 0 1-2.196-3.67l.65-.012a3.666 3.666 0 0 0 1.863 3.116l-.318.567zm4.275-.04l-.33-.56a3.671 3.671 0 0 0 1.805-3.15h.65a4.32 4.32 0 0 1-2.125 3.71zm-5.273 15.307h-.65a3.654 3.654 0 0 0-3.65-3.65 3.654 3.654 0 0 0-3.648 3.65h-.65c0-2.372 1.93-4.3 4.298-4.3 2.37 0 4.3 1.928 4.3 4.3M68.702 10.184h.65v-3.05h-.65M66.925 9.39a4.318 4.318 0 0 1-2.195-3.67l.65-.013a3.669 3.669 0 0 0 1.863 3.117l-.318.567zm4.276-.04l-.33-.56a3.669 3.669 0 0 0 1.805-3.152h.65c0 1.52-.814 2.943-2.124 3.713zM30.868 30.715h.65V.553h-.65m30.144 30.162h.65V.553h-.65"/><path d="M7.068 6.596l-.324-.023.003-.036c-.02-1.44-1.227-2.635-2.692-2.635-.937 0-1.793.478-2.29 1.275l-.55-.343a3.325 3.325 0 0 1 2.84-1.583 3.355 3.355 0 0 1 3.34 3.305l-.327.04zm3.017 3.344a3.355 3.355 0 0 1-3.34-3.303l.327-.04.325.01-.002.037c.018 1.452 1.225 2.646 2.69 2.646.938 0 1.793-.477 2.287-1.277l.554.343a3.317 3.317 0 0 1-2.84 1.584m9.044-3.344l-.325-.023.003-.036c-.02-1.44-1.226-2.635-2.692-2.635-.937 0-1.793.478-2.29 1.275l-.552-.343a3.333 3.333 0 0 1 2.842-1.583 3.355 3.355 0 0 1 3.34 3.305l-.327.04zm3.017 3.344a3.354 3.354 0 0 1-3.34-3.303l.326-.04.325.01v.037c.017 1.452 1.224 2.646 2.69 2.646.936 0 1.79-.477 2.288-1.276l.552.343a3.323 3.323 0 0 1-2.84 1.583m9.044-3.344l-.326-.012.002-.037c-.018-1.45-1.225-2.645-2.69-2.645-.937 0-1.792.478-2.29 1.275l-.55-.343a3.323 3.323 0 0 1 2.84-1.583 3.356 3.356 0 0 1 3.34 3.305l-.326.04zM7.068 15.634l-.324-.022.003-.038c-.02-1.44-1.227-2.633-2.692-2.633-.937 0-1.793.478-2.29 1.275l-.55-.343a3.325 3.325 0 0 1 2.84-1.583c1.82 0 3.318 1.48 3.34 3.303l-.327.04zm3.017 3.346a3.356 3.356 0 0 1-3.34-3.305l.327-.04.325.01-.002.037c.018 1.452 1.225 2.646 2.69 2.646.938 0 1.793-.477 2.287-1.276l.554.343a3.32 3.32 0 0 1-2.84 1.584m9.044-3.345l-.325-.022.003-.038c-.02-1.44-1.226-2.633-2.692-2.633-.937 0-1.793.478-2.29 1.276l-.552-.345a3.33 3.33 0 0 1 2.842-1.58c1.82 0 3.318 1.48 3.34 3.303l-.327.04zm3.017 3.346a3.355 3.355 0 0 1-3.34-3.305l.326-.04.325.01v.037c.017 1.452 1.224 2.646 2.69 2.646.936 0 1.79-.477 2.288-1.276l.552.343a3.324 3.324 0 0 1-2.84 1.584m9.044-3.345l-.326-.01.002-.04c-.018-1.45-1.225-2.643-2.69-2.643-.937 0-1.792.478-2.29 1.276l-.55-.343a3.324 3.324 0 0 1 2.84-1.584c1.82 0 3.317 1.48 3.34 3.303l-.326.04zM7.068 24.672l-.324-.022.003-.038c-.02-1.44-1.227-2.633-2.692-2.633-.937 0-1.793.476-2.29 1.274l-.55-.344a3.324 3.324 0 0 1 2.84-1.582c1.82 0 3.318 1.48 3.34 3.303l-.327.042zm3.017 3.345a3.355 3.355 0 0 1-3.34-3.303l.327-.042.325.01-.002.038c.018 1.453 1.225 2.646 2.69 2.646.938 0 1.793-.477 2.287-1.276l.554.343a3.32 3.32 0 0 1-2.84 1.584m9.044-3.345l-.325-.022.003-.038c-.02-1.44-1.226-2.633-2.692-2.633-.937 0-1.793.476-2.29 1.274l-.552-.344a3.332 3.332 0 0 1 2.842-1.582c1.82 0 3.318 1.48 3.34 3.303l-.327.042zm3.017 3.345a3.354 3.354 0 0 1-3.34-3.303l.326-.042.325.01v.038c.017 1.453 1.224 2.646 2.69 2.646.936 0 1.79-.477 2.288-1.275l.552.344a3.328 3.328 0 0 1-2.84 1.583m9.044-3.346l-.326-.01.002-.038c-.018-1.452-1.225-2.645-2.69-2.645-.937 0-1.792.476-2.29 1.274l-.55-.343a3.322 3.322 0 0 1 2.84-1.582c1.82 0 3.317 1.48 3.34 3.303l-.326.042z"/></g></svg>